# MagicaVoxel @ Ephtracy

# group
o Sword

# material
mtllib Sword-0-Sword.mtl
usemtl palette

# normals
vn 0 0 1
vn 0 0 -1
vn 0 -1 0
vn 0 1 0
vn -1 0 0
vn 1 0 0

# texcoords
vt 0.00976563 0.5
vt 0.0332031 0.5
vt 0.177734 0.5
vt 0.181641 0.5
vt 0.205078 0.5
vt 0.876953 0.5

# verts
v 0 2.3 0.5
v 0 2.4 0.5
v 0 2.5 0.5
v 0.1 2.3 0.5
v 0.1 2.4 0.5
v 0.1 2.5 0.5
v 0 0.2 0.3
v 0 2.3 0.3
v 0.1 0.2 0.3
v 0.1 2.3 0.3
v 0 0.1 0.2
v 0 0.2 0.2
v 0.1 0.1 0.2
v 0.1 0.2 0.2
v 0 0 0.1
v 0 0.1 0.1
v 0 2.5 0.1
v 0 2.9 0.1
v 0 3.1 0.1
v 0.1 0 0.1
v 0.1 0.1 0.1
v 0.1 2.5 0.1
v 0.1 2.9 0.1
v 0.1 3.1 0.1
v 0 3.1 0
v 0 3.2 0
v 0.1 3.1 0
v 0.1 3.2 0
v 0 0 -0.1
v 0 0.1 -0.1
v 0 2.5 -0.1
v 0 3 -0.1
v 0 3.1 -0.1
v 0 3.2 -0.1
v 0.1 0 -0.1
v 0.1 0.1 -0.1
v 0.1 2.5 -0.1
v 0.1 3 -0.1
v 0.1 3.1 -0.1
v 0.1 3.2 -0.1
v 0 0.1 -0.2
v 0 0.2 -0.2
v 0.1 0.1 -0.2
v 0.1 0.2 -0.2
v 0 0.2 -0.3
v 0 2.3 -0.3
v 0.1 0.2 -0.3
v 0.1 2.3 -0.3
v 0 2.3 -0.5
v 0 2.4 -0.5
v 0 2.5 -0.5
v 0.1 2.3 -0.5
v 0.1 2.4 -0.5
v 0.1 2.5 -0.5
v 0 0 0.1
v 0.1 0 0.1
v 0 0 -0.1
v 0.1 0 -0.1
v 0 0.1 0.2
v 0.1 0.1 0.2
v 0 0.1 0.1
v 0.1 0.1 0.1
v 0 0.1 -0.1
v 0.1 0.1 -0.1
v 0 0.1 -0.2
v 0.1 0.1 -0.2
v 0 0.2 0.3
v 0.1 0.2 0.3
v 0 0.2 0.2
v 0.1 0.2 0.2
v 0 0.2 -0.2
v 0.1 0.2 -0.2
v 0 0.2 -0.3
v 0.1 0.2 -0.3
v 0 2.3 0.5
v 0.1 2.3 0.5
v 0 2.3 0.4
v 0.1 2.3 0.4
v 0 2.3 0.3
v 0.1 2.3 0.3
v 0 2.3 -0.3
v 0.1 2.3 -0.3
v 0 2.3 -0.4
v 0.1 2.3 -0.4
v 0 2.3 -0.5
v 0.1 2.3 -0.5
v 0 2.5 0.5
v 0.1 2.5 0.5
v 0 2.5 0.4
v 0.1 2.5 0.4
v 0 2.5 0.1
v 0.1 2.5 0.1
v 0 2.5 -0.1
v 0.1 2.5 -0.1
v 0 2.5 -0.4
v 0.1 2.5 -0.4
v 0 2.5 -0.5
v 0.1 2.5 -0.5
v 0 3.1 0.1
v 0.1 3.1 0.1
v 0 3.1 0
v 0.1 3.1 0
v 0 3.2 0
v 0.1 3.2 0
v 0 3.2 -0.1
v 0.1 3.2 -0.1
v 0 0 0.1
v 0 0 -0.1
v 0 0.1 0.2
v 0 0.1 0.1
v 0 0.1 -0.1
v 0 0.1 -0.2
v 0 0.2 0.3
v 0 0.2 0.2
v 0 0.2 0
v 0 0.2 -0.1
v 0 0.2 -0.2
v 0 0.2 -0.3
v 0 0.3 0
v 0 0.3 -0.1
v 0 0.4 0.2
v 0 0.4 0
v 0 0.4 -0.1
v 0 0.5 0.2
v 0 0.5 0
v 0 0.5 -0.1
v 0 0.5 -0.2
v 0 0.6 0.2
v 0 0.6 0
v 0 0.6 -0.1
v 0 0.6 -0.2
v 0 0.7 0.2
v 0 0.7 0
v 0 0.7 -0.1
v 0 0.8 0.1
v 0 0.8 0
v 0 0.8 -0.1
v 0 0.8 -0.2
v 0 1 0.1
v 0 1 0
v 0 1 -0.1
v 0 1 -0.2
v 0 1.1 0
v 0 1.1 -0.1
v 0 1.1 -0.2
v 0 1.2 0.1
v 0 1.2 0
v 0 1.2 -0.1
v 0 1.2 -0.2
v 0 1.3 0.2
v 0 1.3 0
v 0 1.3 -0.1
v 0 1.4 0.2
v 0 1.4 0
v 0 1.5 0.2
v 0 1.5 0.1
v 0 1.6 0.2
v 0 1.6 0.1
v 0 1.7 0
v 0 1.7 -0.1
v 0 1.8 0.2
v 0 1.8 0
v 0 1.8 -0.1
v 0 1.8 -0.2
v 0 1.9 0.2
v 0 1.9 0.1
v 0 1.9 0
v 0 1.9 -0.1
v 0 1.9 -0.2
v 0 2 0.1
v 0 2 0
v 0 2 -0.1
v 0 2.1 0.2
v 0 2.1 0
v 0 2.1 -0.1
v 0 2.1 -0.2
v 0 2.2 0.2
v 0 2.2 0
v 0 2.2 -0.1
v 0 2.2 -0.2
v 0 2.3 0.5
v 0 2.3 0.4
v 0 2.3 0.3
v 0 2.3 -0.3
v 0 2.3 -0.4
v 0 2.3 -0.5
v 0 2.4 0.5
v 0 2.4 0.4
v 0 2.4 -0.4
v 0 2.4 -0.5
v 0 2.5 0.5
v 0 2.5 0.4
v 0 2.5 0.1
v 0 2.5 -0.1
v 0 2.5 -0.4
v 0 2.5 -0.5
v 0 2.9 0.1
v 0 2.9 0
v 0 3 0
v 0 3 -0.1
v 0 3.1 0.1
v 0 3.1 0
v 0 3.1 -0.1
v 0 3.2 0
v 0 3.2 -0.1
v 0.1 0 0.1
v 0.1 0 -0.1
v 0.1 0.1 0.2
v 0.1 0.1 0.1
v 0.1 0.1 -0.1
v 0.1 0.1 -0.2
v 0.1 0.2 0.3
v 0.1 0.2 0.2
v 0.1 0.2 0
v 0.1 0.2 -0.1
v 0.1 0.2 -0.2
v 0.1 0.2 -0.3
v 0.1 0.3 0
v 0.1 0.3 -0.1
v 0.1 0.4 0.2
v 0.1 0.4 0
v 0.1 0.4 -0.1
v 0.1 0.5 0.2
v 0.1 0.5 0
v 0.1 0.5 -0.1
v 0.1 0.5 -0.2
v 0.1 0.6 0.2
v 0.1 0.6 0
v 0.1 0.6 -0.1
v 0.1 0.6 -0.2
v 0.1 0.7 0.2
v 0.1 0.7 0
v 0.1 0.7 -0.1
v 0.1 0.8 0.1
v 0.1 0.8 0
v 0.1 0.8 -0.1
v 0.1 0.8 -0.2
v 0.1 1 0.1
v 0.1 1 0
v 0.1 1 -0.1
v 0.1 1 -0.2
v 0.1 1.1 0
v 0.1 1.1 -0.1
v 0.1 1.1 -0.2
v 0.1 1.2 0.1
v 0.1 1.2 0
v 0.1 1.2 -0.1
v 0.1 1.2 -0.2
v 0.1 1.3 0.2
v 0.1 1.3 0
v 0.1 1.3 -0.1
v 0.1 1.4 0.2
v 0.1 1.4 0
v 0.1 1.5 0.2
v 0.1 1.5 0.1
v 0.1 1.6 0.2
v 0.1 1.6 0.1
v 0.1 1.7 0
v 0.1 1.7 -0.1
v 0.1 1.8 0.2
v 0.1 1.8 0
v 0.1 1.8 -0.1
v 0.1 1.8 -0.2
v 0.1 1.9 0.2
v 0.1 1.9 0.1
v 0.1 1.9 0
v 0.1 1.9 -0.1
v 0.1 1.9 -0.2
v 0.1 2 0.1
v 0.1 2 0
v 0.1 2 -0.1
v 0.1 2.1 0.2
v 0.1 2.1 0
v 0.1 2.1 -0.1
v 0.1 2.1 -0.2
v 0.1 2.2 0.2
v 0.1 2.2 0
v 0.1 2.2 -0.1
v 0.1 2.2 -0.2
v 0.1 2.3 0.5
v 0.1 2.3 0.4
v 0.1 2.3 0.3
v 0.1 2.3 -0.3
v 0.1 2.3 -0.4
v 0.1 2.3 -0.5
v 0.1 2.4 0.5
v 0.1 2.4 0.4
v 0.1 2.4 -0.4
v 0.1 2.4 -0.5
v 0.1 2.5 0.5
v 0.1 2.5 0.4
v 0.1 2.5 0.1
v 0.1 2.5 -0.1
v 0.1 2.5 -0.4
v 0.1 2.5 -0.5
v 0.1 2.9 0.1
v 0.1 2.9 0
v 0.1 3 0
v 0.1 3 -0.1
v 0.1 3.1 0.1
v 0.1 3.1 0
v 0.1 3.1 -0.1
v 0.1 3.2 0
v 0.1 3.2 -0.1

# faces
f 4/5/1 2/5/1 1/5/1
f 5/3/1 3/3/1 2/3/1
f 5/5/1 2/5/1 4/5/1
f 6/3/1 3/3/1 5/3/1
f 9/6/1 8/6/1 7/6/1
f 10/6/1 8/6/1 9/6/1
f 13/6/1 12/6/1 11/6/1
f 14/6/1 12/6/1 13/6/1
f 20/6/1 16/6/1 15/6/1
f 21/6/1 16/6/1 20/6/1
f 22/6/1 18/6/1 17/6/1
f 23/5/1 19/5/1 18/5/1
f 23/6/1 18/6/1 22/6/1
f 24/5/1 19/5/1 23/5/1
f 27/5/1 26/5/1 25/5/1
f 28/5/1 26/5/1 27/5/1
f 29/6/2 30/6/2 35/6/2
f 35/6/2 30/6/2 36/6/2
f 31/6/2 32/6/2 37/6/2
f 32/3/2 33/3/2 38/3/2
f 37/6/2 32/6/2 38/6/2
f 33/5/2 34/5/2 39/5/2
f 38/3/2 33/3/2 39/3/2
f 39/5/2 34/5/2 40/5/2
f 41/6/2 42/6/2 43/6/2
f 43/6/2 42/6/2 44/6/2
f 45/6/2 46/6/2 47/6/2
f 47/6/2 46/6/2 48/6/2
f 49/5/2 50/5/2 52/5/2
f 50/3/2 51/3/2 53/3/2
f 52/5/2 50/5/2 53/5/2
f 53/3/2 51/3/2 54/3/2
f 57/6/3 56/6/3 55/6/3
f 58/6/3 56/6/3 57/6/3
f 61/6/3 60/6/3 59/6/3
f 62/6/3 60/6/3 61/6/3
f 65/6/3 64/6/3 63/6/3
f 66/6/3 64/6/3 65/6/3
f 69/6/3 68/6/3 67/6/3
f 70/6/3 68/6/3 69/6/3
f 73/6/3 72/6/3 71/6/3
f 74/6/3 72/6/3 73/6/3
f 77/5/3 76/5/3 75/5/3
f 78/5/3 76/5/3 77/5/3
f 79/6/3 78/6/3 77/6/3
f 80/6/3 78/6/3 79/6/3
f 83/6/3 82/6/3 81/6/3
f 84/6/3 82/6/3 83/6/3
f 85/5/3 84/5/3 83/5/3
f 86/5/3 84/5/3 85/5/3
f 87/3/4 88/3/4 89/3/4
f 89/3/4 88/3/4 90/3/4
f 89/6/4 90/6/4 91/6/4
f 91/6/4 90/6/4 92/6/4
f 93/6/4 94/6/4 95/6/4
f 95/6/4 94/6/4 96/6/4
f 95/3/4 96/3/4 97/3/4
f 97/3/4 96/3/4 98/3/4
f 99/5/4 100/5/4 101/5/4
f 101/5/4 100/5/4 102/5/4
f 103/5/4 104/5/4 105/5/4
f 105/5/4 104/5/4 106/5/4
f 110/6/5 108/6/5 107/6/5
f 111/6/5 108/6/5 110/6/5
f 114/6/5 110/6/5 109/6/5
f 114/6/5 112/6/5 111/6/5
f 114/6/5 111/6/5 110/6/5
f 115/6/5 112/6/5 114/6/5
f 116/6/5 112/6/5 115/6/5
f 117/6/5 112/6/5 116/6/5
f 119/6/5 114/6/5 113/6/5
f 119/6/5 115/6/5 114/6/5
f 119/2/5 116/2/5 115/2/5
f 120/6/5 118/6/5 117/6/5
f 120/2/5 116/2/5 119/2/5
f 120/6/5 117/6/5 116/6/5
f 121/6/5 119/6/5 113/6/5
f 121/6/5 120/6/5 119/6/5
f 122/6/5 120/6/5 121/6/5
f 123/6/5 118/6/5 120/6/5
f 123/6/5 120/6/5 122/6/5
f 124/5/5 122/5/5 121/5/5
f 124/6/5 121/6/5 113/6/5
f 125/1/5 123/1/5 122/1/5
f 125/5/5 122/5/5 124/5/5
f 126/6/5 118/6/5 123/6/5
f 126/1/5 123/1/5 125/1/5
f 127/6/5 118/6/5 126/6/5
f 128/6/5 125/6/5 124/6/5
f 128/6/5 124/6/5 113/6/5
f 129/1/5 126/1/5 125/1/5
f 129/6/5 125/6/5 128/6/5
f 130/5/5 127/5/5 126/5/5
f 130/1/5 126/1/5 129/1/5
f 131/6/5 118/6/5 127/6/5
f 131/5/5 127/5/5 130/5/5
f 132/5/5 129/5/5 128/5/5
f 132/6/5 128/6/5 113/6/5
f 133/2/5 130/2/5 129/2/5
f 133/5/5 129/5/5 132/5/5
f 134/6/5 131/6/5 130/6/5
f 134/2/5 130/2/5 133/2/5
f 135/6/5 133/6/5 132/6/5
f 135/6/5 134/6/5 133/6/5
f 136/6/5 134/6/5 135/6/5
f 137/6/5 131/6/5 134/6/5
f 137/6/5 134/6/5 136/6/5
f 138/6/5 118/6/5 131/6/5
f 138/6/5 131/6/5 137/6/5
f 139/5/5 136/5/5 135/5/5
f 139/6/5 135/6/5 132/6/5
f 140/6/5 137/6/5 136/6/5
f 140/5/5 136/5/5 139/5/5
f 141/5/5 138/5/5 137/5/5
f 141/6/5 137/6/5 140/6/5
f 142/6/5 118/6/5 138/6/5
f 142/5/5 138/5/5 141/5/5
f 143/6/5 141/6/5 140/6/5
f 143/4/5 140/4/5 139/4/5
f 143/6/5 142/6/5 141/6/5
f 144/6/5 142/6/5 143/6/5
f 145/6/5 118/6/5 142/6/5
f 145/6/5 142/6/5 144/6/5
f 146/6/5 139/6/5 132/6/5
f 146/4/5 143/4/5 139/4/5
f 147/2/5 144/2/5 143/2/5
f 147/4/5 143/4/5 146/4/5
f 148/5/5 145/5/5 144/5/5
f 148/2/5 144/2/5 147/2/5
f 149/6/5 118/6/5 145/6/5
f 149/5/5 145/5/5 148/5/5
f 150/6/5 132/6/5 113/6/5
f 150/6/5 148/6/5 147/6/5
f 150/6/5 149/6/5 148/6/5
f 150/6/5 147/6/5 146/6/5
f 150/6/5 146/6/5 132/6/5
f 151/6/5 149/6/5 150/6/5
f 152/6/5 149/6/5 151/6/5
f 153/6/5 150/6/5 113/6/5
f 153/5/5 151/5/5 150/5/5
f 154/1/5 152/1/5 151/1/5
f 154/5/5 151/5/5 153/5/5
f 155/6/5 153/6/5 113/6/5
f 155/6/5 154/6/5 153/6/5
f 156/6/5 154/6/5 155/6/5
f 157/6/5 155/6/5 113/6/5
f 157/5/5 156/5/5 155/5/5
f 158/6/5 154/6/5 156/6/5
f 158/5/5 156/5/5 157/5/5
f 159/1/5 152/1/5 154/1/5
f 159/6/5 154/6/5 158/6/5
f 159/6/5 158/6/5 157/6/5
f 160/6/5 149/6/5 152/6/5
f 160/1/5 152/1/5 159/1/5
f 161/6/5 159/6/5 157/6/5
f 161/6/5 157/6/5 113/6/5
f 161/6/5 160/6/5 159/6/5
f 162/6/5 160/6/5 161/6/5
f 163/6/5 149/6/5 160/6/5
f 163/6/5 160/6/5 162/6/5
f 164/6/5 118/6/5 149/6/5
f 164/6/5 149/6/5 163/6/5
f 165/5/5 162/5/5 161/5/5
f 165/6/5 161/6/5 113/6/5
f 166/5/5 162/5/5 165/5/5
f 167/2/5 163/2/5 162/2/5
f 167/5/5 162/5/5 166/5/5
f 168/5/5 164/5/5 163/5/5
f 168/2/5 163/2/5 167/2/5
f 169/6/5 118/6/5 164/6/5
f 169/5/5 164/5/5 168/5/5
f 170/6/5 166/6/5 165/6/5
f 170/5/5 167/5/5 166/5/5
f 171/6/5 168/6/5 167/6/5
f 171/5/5 167/5/5 170/5/5
f 171/6/5 169/6/5 168/6/5
f 172/6/5 169/6/5 171/6/5
f 173/6/5 170/6/5 165/6/5
f 173/6/5 165/6/5 113/6/5
f 173/6/5 171/6/5 170/6/5
f 174/2/5 172/2/5 171/2/5
f 174/6/5 171/6/5 173/6/5
f 175/6/5 169/6/5 172/6/5
f 175/2/5 172/2/5 174/2/5
f 176/6/5 118/6/5 169/6/5
f 176/6/5 169/6/5 175/6/5
f 177/5/5 174/5/5 173/5/5
f 177/6/5 173/6/5 113/6/5
f 178/2/5 175/2/5 174/2/5
f 178/5/5 174/5/5 177/5/5
f 179/5/5 176/5/5 175/5/5
f 179/2/5 175/2/5 178/2/5
f 180/6/5 118/6/5 176/6/5
f 180/5/5 176/5/5 179/5/5
f 183/6/5 177/6/5 113/6/5
f 183/6/5 179/6/5 178/6/5
f 183/6/5 178/6/5 177/6/5
f 183/6/5 180/6/5 179/6/5
f 184/6/5 118/6/5 180/6/5
f 184/6/5 180/6/5 183/6/5
f 187/5/5 182/5/5 181/5/5
f 188/6/5 183/6/5 182/6/5
f 188/5/5 182/5/5 187/5/5
f 188/6/5 184/6/5 183/6/5
f 188/6/5 185/6/5 184/6/5
f 189/5/5 186/5/5 185/5/5
f 189/6/5 185/6/5 188/6/5
f 190/5/5 186/5/5 189/5/5
f 191/3/5 188/3/5 187/3/5
f 192/6/5 189/6/5 188/6/5
f 192/3/5 188/3/5 191/3/5
f 193/6/5 189/6/5 192/6/5
f 194/6/5 189/6/5 193/6/5
f 195/3/5 190/3/5 189/3/5
f 195/6/5 189/6/5 194/6/5
f 196/3/5 190/3/5 195/3/5
f 197/6/5 194/6/5 193/6/5
f 198/6/5 194/6/5 197/6/5
f 199/5/5 198/5/5 197/5/5
f 199/6/5 194/6/5 198/6/5
f 200/6/5 194/6/5 199/6/5
f 201/5/5 199/5/5 197/5/5
f 202/3/5 200/3/5 199/3/5
f 202/5/5 199/5/5 201/5/5
f 203/3/5 200/3/5 202/3/5
f 204/5/5 203/5/5 202/5/5
f 205/5/5 203/5/5 204/5/5
f 206/6/6 207/6/6 209/6/6
f 209/6/6 207/6/6 210/6/6
f 208/6/6 209/6/6 213/6/6
f 210/6/6 211/6/6 213/6/6
f 209/6/6 210/6/6 213/6/6
f 213/6/6 211/6/6 214/6/6
f 214/6/6 211/6/6 215/6/6
f 215/6/6 211/6/6 216/6/6
f 212/6/6 213/6/6 218/6/6
f 213/6/6 214/6/6 218/6/6
f 214/2/6 215/2/6 218/2/6
f 216/6/6 217/6/6 219/6/6
f 218/2/6 215/2/6 219/2/6
f 215/6/6 216/6/6 219/6/6
f 212/6/6 218/6/6 220/6/6
f 218/6/6 219/6/6 220/6/6
f 220/6/6 219/6/6 221/6/6
f 219/6/6 217/6/6 222/6/6
f 221/6/6 219/6/6 222/6/6
f 220/5/6 221/5/6 223/5/6
f 212/6/6 220/6/6 223/6/6
f 221/1/6 222/1/6 224/1/6
f 223/5/6 221/5/6 224/5/6
f 222/6/6 217/6/6 225/6/6
f 224/1/6 222/1/6 225/1/6
f 225/6/6 217/6/6 226/6/6
f 223/6/6 224/6/6 227/6/6
f 212/6/6 223/6/6 227/6/6
f 224/1/6 225/1/6 228/1/6
f 227/6/6 224/6/6 228/6/6
f 225/5/6 226/5/6 229/5/6
f 228/1/6 225/1/6 229/1/6
f 226/6/6 217/6/6 230/6/6
f 229/5/6 226/5/6 230/5/6
f 227/5/6 228/5/6 231/5/6
f 212/6/6 227/6/6 231/6/6
f 228/2/6 229/2/6 232/2/6
f 231/5/6 228/5/6 232/5/6
f 229/6/6 230/6/6 233/6/6
f 232/2/6 229/2/6 233/2/6
f 231/6/6 232/6/6 234/6/6
f 232/6/6 233/6/6 234/6/6
f 234/6/6 233/6/6 235/6/6
f 233/6/6 230/6/6 236/6/6
f 235/6/6 233/6/6 236/6/6
f 230/6/6 217/6/6 237/6/6
f 236/6/6 230/6/6 237/6/6
f 234/5/6 235/5/6 238/5/6
f 231/6/6 234/6/6 238/6/6
f 235/6/6 236/6/6 239/6/6
f 238/5/6 235/5/6 239/5/6
f 236/5/6 237/5/6 240/5/6
f 239/6/6 236/6/6 240/6/6
f 237/6/6 217/6/6 241/6/6
f 240/5/6 237/5/6 241/5/6
f 239/6/6 240/6/6 242/6/6
f 238/4/6 239/4/6 242/4/6
f 240/6/6 241/6/6 242/6/6
f 242/6/6 241/6/6 243/6/6
f 241/6/6 217/6/6 244/6/6
f 243/6/6 241/6/6 244/6/6
f 231/6/6 238/6/6 245/6/6
f 238/4/6 242/4/6 245/4/6
f 242/2/6 243/2/6 246/2/6
f 245/4/6 242/4/6 246/4/6
f 243/5/6 244/5/6 247/5/6
f 246/2/6 243/2/6 247/2/6
f 244/6/6 217/6/6 248/6/6
f 247/5/6 244/5/6 248/5/6
f 212/6/6 231/6/6 249/6/6
f 246/6/6 247/6/6 249/6/6
f 247/6/6 248/6/6 249/6/6
f 245/6/6 246/6/6 249/6/6
f 231/6/6 245/6/6 249/6/6
f 249/6/6 248/6/6 250/6/6
f 250/6/6 248/6/6 251/6/6
f 212/6/6 249/6/6 252/6/6
f 249/5/6 250/5/6 252/5/6
f 250/1/6 251/1/6 253/1/6
f 252/5/6 250/5/6 253/5/6
f 212/6/6 252/6/6 254/6/6
f 252/6/6 253/6/6 254/6/6
f 254/6/6 253/6/6 255/6/6
f 212/6/6 254/6/6 256/6/6
f 254/5/6 255/5/6 256/5/6
f 255/6/6 253/6/6 257/6/6
f 256/5/6 255/5/6 257/5/6
f 253/1/6 251/1/6 258/1/6
f 257/6/6 253/6/6 258/6/6
f 256/6/6 257/6/6 258/6/6
f 251/6/6 248/6/6 259/6/6
f 258/1/6 251/1/6 259/1/6
f 256/6/6 258/6/6 260/6/6
f 212/6/6 256/6/6 260/6/6
f 258/6/6 259/6/6 260/6/6
f 260/6/6 259/6/6 261/6/6
f 259/6/6 248/6/6 262/6/6
f 261/6/6 259/6/6 262/6/6
f 248/6/6 217/6/6 263/6/6
f 262/6/6 248/6/6 263/6/6
f 260/5/6 261/5/6 264/5/6
f 212/6/6 260/6/6 264/6/6
f 264/5/6 261/5/6 265/5/6
f 261/2/6 262/2/6 266/2/6
f 265/5/6 261/5/6 266/5/6
f 262/5/6 263/5/6 267/5/6
f 266/2/6 262/2/6 267/2/6
f 263/6/6 217/6/6 268/6/6
f 267/5/6 263/5/6 268/5/6
f 264/6/6 265/6/6 269/6/6
f 265/5/6 266/5/6 269/5/6
f 266/6/6 267/6/6 270/6/6
f 269/5/6 266/5/6 270/5/6
f 267/6/6 268/6/6 270/6/6
f 270/6/6 268/6/6 271/6/6
f 264/6/6 269/6/6 272/6/6
f 212/6/6 264/6/6 272/6/6
f 269/6/6 270/6/6 272/6/6
f 270/2/6 271/2/6 273/2/6
f 272/6/6 270/6/6 273/6/6
f 271/6/6 268/6/6 274/6/6
f 273/2/6 271/2/6 274/2/6
f 268/6/6 217/6/6 275/6/6
f 274/6/6 268/6/6 275/6/6
f 272/5/6 273/5/6 276/5/6
f 212/6/6 272/6/6 276/6/6
f 273/2/6 274/2/6 277/2/6
f 276/5/6 273/5/6 277/5/6
f 274/5/6 275/5/6 278/5/6
f 277/2/6 274/2/6 278/2/6
f 275/6/6 217/6/6 279/6/6
f 278/5/6 275/5/6 279/5/6
f 212/6/6 276/6/6 282/6/6
f 277/6/6 278/6/6 282/6/6
f 276/6/6 277/6/6 282/6/6
f 278/6/6 279/6/6 282/6/6
f 279/6/6 217/6/6 283/6/6
f 282/6/6 279/6/6 283/6/6
f 280/5/6 281/5/6 286/5/6
f 281/6/6 282/6/6 287/6/6
f 286/5/6 281/5/6 287/5/6
f 282/6/6 283/6/6 287/6/6
f 283/6/6 284/6/6 287/6/6
f 284/5/6 285/5/6 288/5/6
f 287/6/6 284/6/6 288/6/6
f 288/5/6 285/5/6 289/5/6
f 286/3/6 287/3/6 290/3/6
f 287/6/6 288/6/6 291/6/6
f 290/3/6 287/3/6 291/3/6
f 291/6/6 288/6/6 292/6/6
f 292/6/6 288/6/6 293/6/6
f 288/3/6 289/3/6 294/3/6
f 293/6/6 288/6/6 294/6/6
f 294/3/6 289/3/6 295/3/6
f 292/6/6 293/6/6 296/6/6
f 296/6/6 293/6/6 297/6/6
f 296/5/6 297/5/6 298/5/6
f 297/6/6 293/6/6 298/6/6
f 298/6/6 293/6/6 299/6/6
f 296/5/6 298/5/6 300/5/6
f 298/3/6 299/3/6 301/3/6
f 300/5/6 298/5/6 301/5/6
f 301/3/6 299/3/6 302/3/6
f 301/5/6 302/5/6 303/5/6
f 303/5/6 302/5/6 304/5/6
